<svg height="1024pt" preserveAspectRatio="xMidYMid meet" viewBox="0 0 1024 1024" width="1024pt" xmlns="http://www.w3.org/2000/svg"><g transform="matrix(.1 0 0 -.1 0 1024)"><path d="m6245 7596c-151-87-180-107-183-128-4-31 24-117 90-273l50-120-37-70c-21-38-41-74-45-78s-72-16-151-27c-169-22-236-36-266-56-23-14-23-18-23-225v-210l35-15c39-16 221-49 331-59 71-7 71-7 92-49 12-22 31-57 44-77l21-35-47-113c-61-143-96-247-96-281 0-23 19-37 187-133l187-107 49 47c26 27 90 102 142 168l93 120h89l88 1 75-99c41-54 104-130 140-169l66-71 186 107c103 59 189 114 192 123 8 19-37 154-99 297-25 60-44 114-41 120s23 40 44 76l38 64 134 18c156 20 217 32 265 52l35 15v214 214l-24 11c-45 20-101 31-256 51-85 11-156 24-158 30-2 5-21 39-43 75l-40 67 55 132c89 217 103 268 78 290-21 18-353 207-365 207-15 0-176-184-246-282l-34-48-91 1h-91l-80 105c-88 116-185 224-200 224-6 0-91-47-190-104zm685-622c111-35 217-159 240-278 57-302-245-540-520-410-236 112-289 415-105 599 102 102 242 135 385 89z"/><path d="m3870 6987c-14-7-31-25-38-41-17-35-48-205-64-355l-13-114-70-27c-38-14-84-34-102-43s-39-17-48-17c-8 0-87 56-175 126-192 150-210 160-265 135-71-32-269-219-403-379-79-95-79-96 85-300 50-62 103-130 118-152l28-40-36-78c-20-43-39-90-42-105-4-14-12-30-18-35-7-5-113-24-237-43-208-31-227-36-252-61l-28-26v-302-302l28-27c25-25 43-29 242-60 244-37 250-38 250-53 0-6 21-59 46-119 54-128 64-94-86-284-159-201-160-202-108-281 43-66 375-396 415-413 18-7 43-11 56-7 13 3 104 67 202 141 98 75 183 134 189 131s56-24 112-47l100-42 18-126c10-69 27-175 37-236 27-166 1-155 375-155h305l23 23c30 30 49 112 77 333l22 171 61 21c34 11 84 30 113 43l51 22 107-84c250-197 256-201 292-196 51 9 113 60 278 229 177 179 206 216 207 257 1 35-14 58-151 231-55 69-105 135-112 146-9 18-4 39 32 130 24 60 44 110 44 111 1 2 104 19 230 38 125 20 236 40 246 46 45 24 49 51 49 349 0 302-4 331-53 349-12 5-122 24-244 42l-222 34-22 60c-12 33-34 88-49 122l-28 61 69 91c37 50 97 127 133 172 80 102 85 117 50 177-31 53-334 366-395 408-67 46-80 40-277-108-99-74-186-132-197-132-18 1-199 74-210 85-2 3-20 108-39 234-32 209-37 231-61 254l-25 26-298 3c-227 2-303-1-322-11zm543-1150c221-72 411-261 485-484 23-70 26-94 26-228 0-136-2-157-27-230-69-207-242-391-437-468-95-37-172-50-290-49-228 1-434 103-576 284-109 141-154 275-154 467 0 125 22 226 70 323 100 200 300 360 507 403 107 23 298 14 396-18z"/><path d="m6244 4597c-150-86-179-107-182-128-3-28 40-156 100-297l41-95-38-71c-21-39-41-74-44-79-4-4-63-14-132-22-141-17-264-42-291-59-16-10-18-29-18-224v-213l33-14c29-12 189-40 350-62l58-8 41-76 41-77-41-94c-54-126-102-264-102-293 0-14 11-31 28-43 58-40 329-192 343-192 8 0 35 21 61 48 48 50 207 248 214 267 3 7 37 11 97 11h92l78-100c108-141 186-226 205-226 23 0 370 200 376 217 8 19-28 130-90 278l-55 130 43 77 43 76 55 6c150 18 280 40 325 54l50 17 3 217c2 208 2 218-17 228-29 15-147 38-291 55-69 8-126 19-128 24s-21 39-43 76l-41 67 55 131c62 148 99 261 91 280-5 15-356 217-377 217-16 0-153-155-231-263l-50-67h-92c-65 0-93 4-97 13-7 18-173 225-220 275-23 23-46 42-52 42-7 0-92-46-191-103zm632-608c116-21 219-103 272-217 23-48 27-71 27-147 0-80-3-97-31-155-91-191-302-270-492-185-68 30-146 105-181 172-47 93-46 234 1 331 47 94 159 182 260 201 61 12 77 12 144 0z"/></g></svg>