<?xml version="1.0" standalone="no"?>
<!DOCTYPE svg PUBLIC "-//W3C//DTD SVG 20010904//EN"
 "http://www.w3.org/TR/2001/REC-SVG-20010904/DTD/svg10.dtd">
<svg version="1.0" xmlns="http://www.w3.org/2000/svg"
 width="700.000000pt" height="700.000000pt" viewBox="0 0 700.000000 700.000000"
 preserveAspectRatio="xMidYMid meet">
<metadata>
Created by potrace 1.11, written by Peter Selinger 2001-2013
</metadata>
<g transform="translate(0.000000,700.000000) scale(0.100000,-0.100000)"
fill="#000000" stroke="none">
<path d="M4314 5223 c-171 -98 -177 -103 -171 -139 3 -18 24 -80 48 -138 l42
-106 -18 -40 c-10 -22 -25 -46 -33 -53 -8 -6 -73 -22 -143 -33 -71 -12 -136
-27 -144 -34 -12 -10 -15 -40 -15 -156 0 -131 2 -144 19 -154 17 -8 79 -20
248 -46 24 -4 37 -14 57 -49 14 -24 26 -49 26 -56 0 -7 -18 -56 -39 -108 -22
-53 -42 -112 -46 -132 -6 -33 -4 -39 27 -62 18 -13 77 -49 130 -80 l97 -56 50
55 c28 30 72 82 97 115 l47 59 61 0 61 0 52 -67 c28 -38 71 -90 95 -116 l43
-48 127 75 c70 42 130 81 133 86 7 12 -13 78 -62 199 l-33 84 26 46 c15 25 27
47 28 48 1 0 50 8 111 17 60 9 127 22 147 28 l38 11 0 152 0 153 -27 11 c-16
6 -73 18 -128 26 -142 22 -137 20 -168 71 l-28 47 44 111 c60 150 62 162 37
183 -11 10 -71 46 -132 80 l-112 63 -29 -28 c-16 -15 -61 -66 -99 -114 l-70
-88 -57 0 -56 0 -83 105 c-45 58 -91 109 -100 114 -14 7 -37 -1 -98 -36z m441
-467 c18 -8 49 -31 70 -51 96 -96 101 -239 13 -340 -57 -64 -113 -88 -197 -83
-220 12 -317 263 -162 418 76 76 178 96 276 56z"/>
<path d="M2655 4781 c-12 -5 -26 -15 -32 -22 -13 -16 -40 -146 -49 -239 -4
-36 -10 -71 -14 -79 -8 -15 -113 -61 -141 -61 -9 0 -68 38 -129 85 -62 46
-121 87 -131 90 -12 4 -37 -4 -65 -20 -54 -32 -229 -203 -269 -263 -27 -41
-28 -44 -13 -75 9 -18 46 -70 83 -117 108 -135 102 -119 65 -204 l-32 -73
-155 -26 c-105 -17 -160 -30 -174 -42 -18 -17 -19 -33 -19 -231 0 -255 -14
-234 170 -264 69 -11 137 -23 151 -26 22 -4 32 -18 59 -86 l32 -81 -29 -38
c-15 -20 -56 -74 -90 -119 -36 -46 -63 -92 -63 -105 0 -32 56 -100 188 -227
90 -88 116 -108 140 -108 21 0 64 25 153 90 67 50 126 90 130 90 4 0 38 -13
75 -29 l69 -29 22 -144 c12 -78 22 -149 22 -155 1 -7 10 -22 21 -33 19 -19 33
-20 235 -20 212 0 215 0 229 23 15 22 40 143 52 252 3 33 10 67 14 75 5 8 40
26 79 39 l71 24 57 -45 c183 -142 183 -142 227 -139 24 1 302 276 314 310 13
37 5 52 -92 176 -62 80 -84 115 -80 130 5 19 45 127 49 133 1 1 71 14 156 28
85 14 164 32 176 40 18 11 22 27 28 101 11 130 0 342 -19 361 -9 9 -76 25
-174 40 l-160 26 -31 76 c-17 42 -31 80 -31 85 0 4 41 61 90 127 50 65 90 126
90 136 0 25 -24 57 -120 161 -120 130 -187 184 -219 176 -14 -4 -78 -44 -143
-91 -64 -46 -123 -84 -130 -84 -30 0 -133 49 -140 66 -4 11 -16 80 -28 154
-13 86 -28 144 -39 160 l-18 25 -199 2 c-109 1 -208 -2 -219 -6z m420 -820
c95 -47 200 -151 246 -246 34 -69 34 -71 34 -211 l0 -140 -37 -75 c-91 -184
-257 -289 -457 -289 -204 0 -372 105 -458 286 -34 72 -37 86 -41 189 -7 171
26 262 137 378 61 64 97 89 180 124 51 21 68 23 191 21 131 -3 138 -4 205 -37z"/>
<path d="M4315 3173 c-44 -25 -102 -59 -128 -76 -47 -29 -48 -32 -42 -66 4
-19 25 -82 47 -138 l41 -104 -23 -50 c-15 -31 -31 -51 -44 -54 -12 -2 -68 -11
-126 -20 -165 -26 -154 -13 -158 -187 -2 -132 -1 -148 15 -156 14 -8 250 -52
276 -52 9 0 57 -84 57 -100 0 -7 -18 -57 -40 -111 -42 -107 -55 -158 -43 -175
5 -6 61 -42 126 -80 93 -53 122 -66 135 -58 10 6 55 56 102 112 l85 102 60 0
60 0 52 -67 c29 -38 70 -88 91 -113 l40 -45 48 23 c64 31 212 120 219 133 8
11 -15 84 -62 197 l-34 84 27 46 c15 26 28 48 28 49 1 1 49 9 106 18 56 8 123
20 147 26 l43 11 0 154 c0 181 15 163 -156 189 -143 22 -135 18 -167 71 l-28
47 44 111 c72 179 73 166 -28 225 -47 28 -107 62 -134 75 l-48 25 -40 -42
c-22 -23 -66 -75 -98 -115 l-58 -73 -55 3 -56 3 -85 104 c-47 56 -93 107 -101
111 -11 6 -41 -6 -95 -37z m398 -454 c107 -27 187 -130 187 -240 0 -69 -19
-116 -68 -171 -49 -54 -102 -78 -178 -78 -238 -1 -339 293 -153 442 65 53 132
68 212 47z"/>
</g>
</svg>
