<?xml version="1.0" standalone="no"?>
<!DOCTYPE svg PUBLIC "-//W3C//DTD SVG 20010904//EN"
 "http://www.w3.org/TR/2001/REC-SVG-20010904/DTD/svg10.dtd">
<svg version="1.0" xmlns="http://www.w3.org/2000/svg"
 width="700.000000pt" height="700.000000pt" viewBox="0 0 700.000000 700.000000"
 preserveAspectRatio="xMidYMid meet">
<metadata>
Created by potrace 1.14, written by Peter Selinger 2001-2017
</metadata>
<g transform="translate(0.000000,700.000000) scale(0.100000,-0.100000)"
fill="#000000" stroke="none">
<path d="M3465 6203 c-39 -20 -83 -44 -100 -54 -16 -9 -70 -38 -119 -64 -48
-26 -111 -60 -140 -77 -28 -17 -94 -53 -146 -80 -52 -28 -99 -54 -105 -58 -5
-4 -45 -26 -88 -49 -43 -23 -117 -63 -165 -90 -48 -26 -116 -64 -152 -83 -36
-20 -157 -86 -270 -148 -222 -122 -234 -128 -450 -247 -80 -44 -185 -102 -235
-128 -49 -26 -94 -51 -100 -55 -5 -4 -46 -27 -90 -50 -44 -24 -123 -67 -175
-95 -289 -158 -503 -273 -555 -300 -121 -61 -226 -195 -275 -350 -30 -92 -36
-252 -14 -350 15 -66 74 -205 98 -231 6 -7 35 -37 65 -68 l54 -56 -46 -45
c-26 -25 -62 -68 -80 -97 -79 -126 -102 -210 -101 -378 0 -109 3 -135 26 -200
37 -107 74 -166 143 -234 l60 -59 -62 -64 c-108 -110 -170 -271 -171 -445 -2
-193 76 -373 207 -481 84 -69 168 -101 401 -151 118 -26 233 -51 255 -56 104
-23 684 -151 710 -156 11 -2 61 -13 110 -24 50 -11 131 -29 180 -40 50 -10
173 -37 275 -60 102 -23 194 -43 205 -45 62 -14 216 -47 255 -56 25 -6 52 -12
60 -14 52 -11 449 -97 502 -109 34 -8 74 -17 88 -20 24 -5 51 -11 225 -50 134
-30 131 -30 230 26 49 27 108 60 130 72 40 22 95 54 845 476 217 123 415 234
440 248 25 14 275 154 555 312 281 158 533 299 560 315 102 56 190 109 202
121 7 7 15 30 19 52 5 34 2 43 -22 70 -56 61 -76 56 -304 -75 -88 -51 -312
-177 -476 -269 -44 -24 -1266 -712 -1344 -756 -530 -299 -727 -408 -739 -408
-7 0 -178 36 -380 81 -651 143 -853 187 -1021 224 -91 19 -203 44 -250 55
-122 28 -318 71 -365 81 -22 4 -134 29 -250 54 -115 26 -219 49 -230 51 -40 8
-61 12 -105 23 -25 6 -151 34 -280 61 -246 53 -309 76 -371 133 -127 118 -158
362 -68 539 32 63 104 133 161 158 59 25 96 24 243 -9 50 -11 131 -29 180 -40
50 -11 162 -36 250 -55 88 -20 171 -39 185 -41 34 -6 44 -9 210 -45 80 -18
152 -34 160 -35 8 -2 76 -17 150 -34 74 -16 151 -33 170 -36 19 -3 49 -10 65
-15 17 -5 46 -12 65 -15 19 -3 43 -8 52 -11 9 -3 25 -6 35 -8 33 -7 307 -67
368 -81 33 -8 125 -28 205 -45 80 -18 152 -34 160 -35 8 -2 60 -13 115 -25 55
-12 105 -23 110 -24 6 -1 26 -6 45 -10 19 -4 114 -25 212 -47 97 -21 188 -39
204 -39 15 0 57 17 93 37 79 44 93 51 286 160 83 47 179 101 215 120 36 20 70
39 75 43 6 4 35 21 65 38 30 16 73 40 95 52 22 13 58 33 80 45 22 12 56 31 75
42 19 11 109 62 200 113 91 51 194 109 230 130 36 21 124 70 195 110 72 40
162 91 200 113 39 22 99 55 135 74 36 20 70 39 75 43 6 4 35 21 65 38 30 16
141 78 245 137 105 59 219 123 255 142 36 20 70 39 75 43 6 5 37 23 70 40 33
18 74 43 92 57 82 61 29 186 -72 170 -16 -3 -141 -68 -276 -144 -135 -77 -252
-143 -260 -146 -8 -4 -30 -17 -49 -28 -19 -12 -116 -66 -215 -122 -99 -55
-193 -108 -210 -117 -44 -26 -483 -273 -535 -302 -25 -14 -220 -124 -435 -245
-214 -121 -415 -234 -445 -250 -30 -17 -120 -67 -198 -112 l-144 -81 -91 21
c-51 11 -101 22 -112 25 -11 2 -31 6 -45 9 -14 3 -45 10 -70 15 -25 5 -166 36
-315 69 -148 33 -281 62 -295 65 -40 7 -211 45 -255 56 -41 10 -701 155 -746
164 -13 2 -46 10 -74 16 -27 6 -58 13 -68 15 -10 2 -26 6 -35 9 -9 3 -31 8
-49 11 -17 3 -112 23 -210 44 -98 22 -189 42 -203 45 -14 2 -87 18 -162 35
-76 17 -199 44 -273 61 -75 16 -150 37 -168 46 -91 47 -152 120 -187 225 -19
54 -21 80 -18 170 4 96 8 113 40 180 59 125 153 202 248 202 25 0 99 -12 165
-27 139 -33 124 -29 245 -55 52 -11 124 -26 160 -35 63 -15 324 -72 365 -80
11 -2 126 -27 255 -56 129 -29 240 -53 245 -55 107 -23 155 -13 175 36 17 40
6 99 -22 121 -13 9 -45 22 -73 28 -27 6 -68 15 -90 20 -81 19 -461 102 -485
106 -14 3 -61 13 -105 24 -44 10 -93 21 -110 24 -16 3 -183 39 -370 81 -187
41 -347 75 -355 75 -8 0 -42 13 -75 28 -141 67 -215 197 -215 378 0 92 19 166
61 240 45 80 134 152 191 156 21 1 222 -39 383 -77 33 -7 107 -23 165 -35 58
-11 121 -25 140 -30 19 -5 46 -11 60 -14 56 -10 184 -37 189 -40 3 -2 22 -7
41 -10 33 -5 339 -69 480 -101 36 -8 256 -55 490 -105 234 -49 443 -94 465
-100 34 -8 486 -105 538 -116 10 -2 26 -5 35 -8 9 -3 33 -8 52 -11 19 -3 53
-9 75 -14 48 -9 42 -12 345 159 124 70 252 142 285 160 33 18 65 36 70 40 6 4
35 21 65 37 30 16 395 221 810 455 415 233 775 436 800 450 25 14 119 67 210
118 91 51 185 104 210 118 25 13 55 34 67 45 40 36 39 102 -2 143 -11 11 -35
21 -72 29 -10 2 -61 13 -113 25 -52 11 -104 22 -115 24 -11 3 -81 18 -155 35
-74 16 -150 33 -169 36 -19 3 -37 8 -41 10 -4 2 -20 7 -36 9 -50 10 -75 15
-92 20 -9 3 -33 8 -52 11 -19 3 -62 12 -95 20 -33 8 -206 46 -385 85 -179 39
-343 74 -365 80 -98 22 -634 141 -665 146 -14 3 -104 23 -200 44 -96 22 -186
41 -200 44 -14 3 -77 16 -140 31 -63 14 -124 27 -135 30 -11 2 -30 6 -41 9
-78 17 -90 15 -159 -21z"/>
<path d="M6585 4531 c-22 -10 -150 -80 -285 -156 -135 -76 -261 -147 -280
-158 -19 -11 -69 -38 -110 -62 -41 -23 -95 -53 -120 -67 -211 -118 -748 -420
-760 -428 -8 -6 -24 -14 -35 -20 -11 -5 -274 -152 -585 -328 l-565 -318 -76
17 c-41 10 -86 20 -100 23 -13 2 -126 27 -250 55 -125 27 -240 48 -255 45 -32
-5 -70 -45 -77 -80 -5 -26 13 -73 35 -91 12 -10 157 -48 263 -69 11 -2 123
-26 248 -54 147 -32 237 -48 255 -44 15 4 56 24 91 46 34 21 65 38 66 38 2 0
30 15 62 34 32 18 78 45 103 58 25 14 169 95 320 180 151 85 295 166 320 180
25 14 131 73 235 133 105 59 251 141 325 183 74 41 254 143 400 225 146 82
287 161 313 176 26 14 56 31 65 36 9 6 53 30 97 55 399 223 417 234 432 263
21 41 9 92 -27 119 -40 29 -57 30 -105 9z"/>
<path d="M2523 3245 l0 -515 36 22 c20 12 59 36 86 53 28 17 63 39 78 49 l29
18 67 -74 c37 -40 90 -98 117 -130 27 -31 54 -58 60 -61 7 -4 10 155 10 534 0
375 -3 539 -10 540 -6 0 -22 3 -36 5 -14 3 -106 18 -205 34 -99 17 -192 32
-206 34 l-26 5 0 -514z"/>
</g>
</svg>
