<svg height="1000" viewBox="0 0 264.58333 264.58334" width="1000" xmlns="http://www.w3.org/2000/svg"><g transform="matrix(2.4819787 0 0 2.4819787 -4114.7413 639.86348)"><g stroke="#333" stroke-linecap="round" stroke-linejoin="round"><path d="m1669.7664-190.07191c-3.4831-.00006-6.3067 3.45812-6.3067 7.72402s2.5563 7.18954 6.3067 7.72402l46.9069 10.30393 42.1444-23.718" fill="none" stroke-width="2.999"/><path d="m1669.7664-205.51995c-3.4831-.00006-6.3067 3.45812-6.3067 7.72402s2.5563 7.18954 6.3067 7.72402l46.9069 10.30393 42.1444-23.718" fill="none" stroke-width="2.999"/><path d="m1669.7664-220.96799c-3.4831-.00006-6.3067 3.45812-6.3067 7.72402s2.5563 7.18954 6.3067 7.72402l22.8809 5.02619m13.6936 3.00805 10.3324 2.26969 42.1444-23.718" fill="none" stroke-width="2.999"/><path d="m6470.2148-924.79688-163.5797 89.64226 181.5797 38.94368 159.2852-89.64258z" fill="#333" stroke-width="11.334804" transform="scale(.26458333)"/><path d="m1715.1438-235.60505-10.863 6.14815 17.4451 3.83204 10.8628-6.14815z" fill="#EF4444" stroke-width="1.115347"/></g><path d="m1696.2626-208.44866v15.68601l3.4963-2.17336 3.8743 4.25223v-16.53646z" fill="#EF4444" fill-rule="evenodd"/></g></svg>
