<?xml version="1.0" encoding="UTF-8" standalone="no"?>
<svg
   xmlns:dc="http://purl.org/dc/elements/1.1/"
   xmlns:cc="http://creativecommons.org/ns#"
   xmlns:rdf="http://www.w3.org/1999/02/22-rdf-syntax-ns#"
   xmlns:svg="http://www.w3.org/2000/svg"
   xmlns="http://www.w3.org/2000/svg"
   xmlns:sodipodi="http://sodipodi.sourceforge.net/DTD/sodipodi-0.dtd"
   xmlns:inkscape="http://www.inkscape.org/namespaces/inkscape"
   inkscape:version="1.0 (4035a4f, 2020-05-01)"
   sodipodi:docname="logo.svg"
   id="svg300"
   version="1.1"
   width="1024pt"
   viewBox="0 0 1024 1024"
   preserveAspectRatio="xMidYMid meet"
   height="1024pt">
  <metadata
     id="metadata306">
    <rdf:RDF>
      <cc:Work
         rdf:about="">
        <dc:format>image/svg+xml</dc:format>
        <dc:type
           rdf:resource="http://purl.org/dc/dcmitype/StillImage" />
      </cc:Work>
    </rdf:RDF>
  </metadata>
  <defs
     id="defs304" />
  <sodipodi:namedview
     inkscape:current-layer="svg300"
     inkscape:window-maximized="1"
     inkscape:window-y="23"
     inkscape:window-x="0"
     inkscape:cy="682.66667"
     inkscape:cx="682.66667"
     inkscape:zoom="0.43139648"
     showgrid="false"
     id="namedview302"
     inkscape:window-height="775"
     inkscape:window-width="1440"
     inkscape:pageshadow="2"
     inkscape:pageopacity="0"
     guidetolerance="10"
     gridtolerance="10"
     objecttolerance="10"
     borderopacity="1"
     bordercolor="#666666"
     pagecolor="#ffffff" />
  <g
     id="g298"
     transform="matrix(.1 0 0 -.1 0 1024)">
    <path
       id="path292"
       d="m6245 7596c-151-87-180-107-183-128-4-31 24-117 90-273l50-120-37-70c-21-38-41-74-45-78s-72-16-151-27c-169-22-236-36-266-56-23-14-23-18-23-225v-210l35-15c39-16 221-49 331-59 71-7 71-7 92-49 12-22 31-57 44-77l21-35-47-113c-61-143-96-247-96-281 0-23 19-37 187-133l187-107 49 47c26 27 90 102 142 168l93 120h89l88 1 75-99c41-54 104-130 140-169l66-71 186 107c103 59 189 114 192 123 8 19-37 154-99 297-25 60-44 114-41 120s23 40 44 76l38 64 134 18c156 20 217 32 265 52l35 15v214 214l-24 11c-45 20-101 31-256 51-85 11-156 24-158 30-2 5-21 39-43 75l-40 67 55 132c89 217 103 268 78 290-21 18-353 207-365 207-15 0-176-184-246-282l-34-48-91 1h-91l-80 105c-88 116-185 224-200 224-6 0-91-47-190-104zm685-622c111-35 217-159 240-278 57-302-245-540-520-410-236 112-289 415-105 599 102 102 242 135 385 89z" />
    <path
       id="path294"
       d="m3870 6987c-14-7-31-25-38-41-17-35-48-205-64-355l-13-114-70-27c-38-14-84-34-102-43s-39-17-48-17c-8 0-87 56-175 126-192 150-210 160-265 135-71-32-269-219-403-379-79-95-79-96 85-300 50-62 103-130 118-152l28-40-36-78c-20-43-39-90-42-105-4-14-12-30-18-35-7-5-113-24-237-43-208-31-227-36-252-61l-28-26v-302-302l28-27c25-25 43-29 242-60 244-37 250-38 250-53 0-6 21-59 46-119 54-128 64-94-86-284-159-201-160-202-108-281 43-66 375-396 415-413 18-7 43-11 56-7 13 3 104 67 202 141 98 75 183 134 189 131s56-24 112-47l100-42 18-126c10-69 27-175 37-236 27-166 1-155 375-155h305l23 23c30 30 49 112 77 333l22 171 61 21c34 11 84 30 113 43l51 22 107-84c250-197 256-201 292-196 51 9 113 60 278 229 177 179 206 216 207 257 1 35-14 58-151 231-55 69-105 135-112 146-9 18-4 39 32 130 24 60 44 110 44 111 1 2 104 19 230 38 125 20 236 40 246 46 45 24 49 51 49 349 0 302-4 331-53 349-12 5-122 24-244 42l-222 34-22 60c-12 33-34 88-49 122l-28 61 69 91c37 50 97 127 133 172 80 102 85 117 50 177-31 53-334 366-395 408-67 46-80 40-277-108-99-74-186-132-197-132-18 1-199 74-210 85-2 3-20 108-39 234-32 209-37 231-61 254l-25 26-298 3c-227 2-303-1-322-11zm543-1150c221-72 411-261 485-484 23-70 26-94 26-228 0-136-2-157-27-230-69-207-242-391-437-468-95-37-172-50-290-49-228 1-434 103-576 284-109 141-154 275-154 467 0 125 22 226 70 323 100 200 300 360 507 403 107 23 298 14 396-18z" />
    <path
       id="path296"
       d="m6244 4597c-150-86-179-107-182-128-3-28 40-156 100-297l41-95-38-71c-21-39-41-74-44-79-4-4-63-14-132-22-141-17-264-42-291-59-16-10-18-29-18-224v-213l33-14c29-12 189-40 350-62l58-8 41-76 41-77-41-94c-54-126-102-264-102-293 0-14 11-31 28-43 58-40 329-192 343-192 8 0 35 21 61 48 48 50 207 248 214 267 3 7 37 11 97 11h92l78-100c108-141 186-226 205-226 23 0 370 200 376 217 8 19-28 130-90 278l-55 130 43 77 43 76 55 6c150 18 280 40 325 54l50 17 3 217c2 208 2 218-17 228-29 15-147 38-291 55-69 8-126 19-128 24s-21 39-43 76l-41 67 55 131c62 148 99 261 91 280-5 15-356 217-377 217-16 0-153-155-231-263l-50-67h-92c-65 0-93 4-97 13-7 18-173 225-220 275-23 23-46 42-52 42-7 0-92-46-191-103zm632-608c116-21 219-103 272-217 23-48 27-71 27-147 0-80-3-97-31-155-91-191-302-270-492-185-68 30-146 105-181 172-47 93-46 234 1 331 47 94 159 182 260 201 61 12 77 12 144 0z" />
  </g>
  <path
     transform="scale(0.74999998)"
     id="path308"
     d="M 832.56742,610.53321 C 804.969,594.29033 806.02306,598.22052 819.91156,563.34418 l 8.28508,-20.80522 -5.54144,-10.4885 c -5.53318,-10.47284 -5.5674,-10.49262 -22.92685,-13.25708 -9.56197,-1.52272 -22.8618,-3.94456 -29.55518,-5.38186 l -12.16977,-2.61327 v -26.3258 c 0,-30.42322 1.06276,-32.485 17.9926,-34.90584 38.51029,-5.50669 40.64101,-6.24769 46.31996,-16.10866 6.15255,-10.68334 6.073,-11.29552 -5.25846,-40.46728 l -8.5227,-21.94086 5.86192,-5.04221 c 7.65846,-6.58753 39.4621,-24.11766 43.56833,-24.01481 2.88885,0.0723 32.25048,33.98806 34.09909,39.38795 0.42498,1.24139 7.24116,2.25706 15.14707,2.25706 13.21833,0 14.67875,-0.51268 18.15885,-6.37464 5.45,-9.1801 29.59324,-35.35031 32.61231,-35.35031 1.4055,0 12.87839,5.84489 25.49531,12.98865 26.40752,14.95208 25.46042,11.37244 11.97225,45.25008 -4.3776,10.99497 -7.95927,21.18616 -7.95927,22.64708 0,2.96347 10.99752,21.10853 12.79364,21.10853 6.6592,0 48.9714,7.59148 52.3297,9.38877 3.95,2.11402 4.4183,5.17238 4.4183,28.85911 0,31.59304 1.7687,29.74929 -33.9797,35.42001 -24.35554,3.8635 -24.64333,3.98397 -30.07638,12.59049 -3.01706,4.77932 -5.48556,9.56664 -5.48556,10.63851 0,1.07185 4.1725,13.0213 9.27221,26.55432 5.09973,13.53303 9.27223,25.68171 9.27223,26.99707 0,2.12417 -38.06535,25.89347 -46.89035,29.27993 -2.36123,0.90611 -9.16256,-5.69427 -21.45198,-20.81818 l -17.99458,-22.14489 h -12.18036 -12.18036 l -17.89431,22.0215 c -9.84187,12.11183 -18.57565,22.00248 -19.40841,21.9792 -0.83275,-0.0232 -12.29305,-6.38619 -25.46733,-14.13982 z m 99.16084,-83.76058 c 27.80465,-14.70346 34.41812,-53.50385 13.23243,-77.63302 -19.2373,-21.91007 -54.04331,-22.56574 -73.68757,-1.38812 -11.07889,11.94367 -14.162,20.8509 -13.1874,38.09893 0.74258,13.14179 2.08292,17.38778 8.1194,25.7209 14.5398,20.07161 43.57502,26.80775 65.52314,15.20131 z"
     style="fill:#1789a9;stroke-width:2.31805" />
  <path
     transform="scale(0.74999998)"
     id="path310"
     d="m 515.01411,926.46856 c -3.21266,-3.21266 -5.44324,-12.15571 -8.59386,-34.45519 l -4.25504,-30.11638 -14.06167,-5.58572 c -7.73391,-3.07217 -15.27873,-5.45533 -16.76627,-5.29594 -1.48753,0.15925 -13.61873,8.24357 -26.95822,17.96491 -13.33949,9.72131 -25.57814,17.67511 -27.19699,17.67511 -3.23039,0 -50.88688,-45.99282 -58.24451,-56.21119 -2.68419,-3.72787 -4.01562,-8.17909 -3.2078,-10.72431 0.75957,-2.39321 8.63724,-13.60751 17.50594,-24.92067 8.86869,-11.31317 16.14118,-22.25577 16.16107,-24.31689 0.0461,-4.77598 -9.18398,-27.87285 -12.51084,-31.30647 -1.38618,-1.43066 -14.51625,-4.44408 -29.17794,-6.69648 -14.66169,-2.25239 -29.5262,-5.74004 -33.03226,-7.7503 l -6.37464,-3.65506 v -40.00661 -40.00661 l 6.37464,-3.28977 c 3.50606,-1.80938 17.32745,-5.00424 30.71421,-7.0997 13.38675,-2.09545 26.19012,-4.37103 28.45193,-5.05684 2.2618,-0.68582 7.19315,-8.04147 10.95856,-16.34589 l 6.84619,-15.09896 -17.82738,-22.88262 c -9.80506,-12.58544 -18.62669,-25.04335 -19.60362,-27.68425 -1.42346,-3.84799 1.12245,-8.12485 12.8189,-21.53438 17.37803,-19.92323 44.63917,-43.39036 50.40542,-43.39036 2.26323,0 14.76386,7.92517 27.77918,17.61149 25.90695,19.2806 26.11341,19.32767 46.46927,10.5942 l 10.69234,-4.58743 1.69192,-18.18378 c 0.93055,-10.00108 3.42087,-24.96326 5.53403,-33.2493 l 3.84211,-15.06553 12.65287,-1.99406 c 6.95908,-1.09674 26.53874,-1.25035 43.51036,-0.34135 25.1764,1.34843 31.22576,2.35538 32.85762,5.46932 1.10005,2.09914 3.73313,14.76941 5.85128,28.15617 5.85517,37.005 4.67465,34.45607 18.86427,40.73139 7.00133,3.09632 14.07707,5.62967 15.72384,5.62967 1.64679,0 14.0165,-7.82343 27.48826,-17.3854 13.47176,-9.56197 26.30427,-17.38539 28.51669,-17.38539 7.60498,0 61.40748,55.83768 61.40748,63.73031 0,1.67455 -7.82343,13.4083 -17.3854,26.07501 -9.56197,12.66671 -17.3854,24.06216 -17.3854,25.32323 0,2.14778 11.28866,31.25729 12.70242,32.75508 0.35677,0.37799 13.30565,2.6592 28.77527,5.06935 36.63869,5.70829 36.90417,5.81003 38.58854,14.78846 2.18273,11.63492 0.19889,77.46688 -2.41145,80.02536 -1.27493,1.24955 -16.64137,4.61305 -34.14766,7.47443 l -31.82958,5.20252 -6.19347,15.78608 -6.19344,15.78608 16.2623,21.47139 c 22.96442,30.32025 22.70383,29.61299 14.85967,40.33055 -9.36539,12.796 -49.5141,50.97012 -55.6572,52.91988 -4.15629,1.31914 -9.49481,-1.69941 -27.17451,-15.36524 -12.10114,-9.3538 -23.38243,-17.96298 -25.06954,-19.13151 -2.84274,-1.96896 -27.03297,5.78794 -32.2428,10.33907 -1.06808,0.93304 -3.48435,13.02709 -5.36946,26.87567 -1.88511,13.84858 -5.18373,28.83018 -7.33024,33.29244 l -3.90275,8.11318 -39.93192,0.63401 c -36.42203,0.57831 -40.31327,0.25267 -44.27072,-3.70478 z m 81.46045,-150.95334 c 19.74859,-7.63321 40.93059,-28.28097 52.00961,-50.69786 8.45245,-17.10239 8.68391,-18.25479 8.68391,-43.23823 0,-24.52562 -0.3529,-26.3873 -7.93214,-41.84519 -9.73525,-19.85505 -29.21844,-39.6934 -48.06192,-48.93808 -12.80258,-6.28098 -15.20457,-6.64645 -43.68223,-6.64645 -29.5083,0 -30.43517,0.15695 -44.59052,7.55089 -17.98573,9.39469 -37.04383,28.47647 -45.31776,45.37405 -8.25758,16.86416 -11.87891,42.62836 -8.73535,62.14813 6.09164,37.82562 34.32835,69.23135 71.98602,80.06505 15.72746,4.52463 49.14299,2.60426 65.64038,-3.77231 z"
     style="fill:#1789a9;stroke-width:2.31805" />
  <path
     transform="scale(0.74999998)"
     id="path312"
     d="m 839.24543,1013.9393 c -20.53594,-11.1932 -30.24486,-17.8672 -30.24486,-20.7905 0,-1.17665 4.3068,-13.08284 9.57067,-26.45817 8.40348,-21.35302 9.23886,-25.1013 6.8499,-30.73505 -5.67998,-13.39485 -7.71337,-14.47953 -36.10349,-19.25881 -14.94432,-2.51577 -28.10361,-5.15021 -29.24287,-5.85431 -1.13926,-0.7041 -2.07138,-13.08683 -2.07138,-27.51716 0,-20.19279 0.78085,-26.88503 3.38956,-29.05007 1.86427,-1.5472 13.07785,-4.34263 24.91908,-6.21207 11.84122,-1.86943 23.72147,-3.8416 26.40055,-4.38258 2.85323,-0.57615 7.11458,-5.21271 10.28699,-11.19275 l 5.41594,-10.20914 -8.39435,-21.70641 c -12.77355,-33.0303 -12.6845,-31.02912 -1.6897,-37.96983 5.26669,-3.32471 16.29778,-9.7398 24.51354,-14.25575 17.53453,-9.63819 15.93416,-10.31752 36.40131,15.45183 14.24039,17.92948 17.81004,20.23763 31.90736,20.63141 7.65694,0.21389 9.33598,-1.11978 22.58312,-17.93789 22.09966,-28.05697 20.84564,-27.35468 35.56212,-19.91587 6.81814,3.4464 17.89295,9.77423 24.61066,14.06185 14.22332,9.07809 14.20212,8.14189 0.92873,40.96806 l -8.25776,20.42216 5.67067,10.39084 c 3.14621,5.76505 7.73458,10.803 10.30678,11.31666 2.5499,0.5092 15.0019,2.57249 27.6713,4.5851 12.6693,2.01261 23.6221,4.25948 24.3395,4.99304 2.1623,2.21087 0.5216,54.75502 -1.7816,57.0582 -1.1756,1.17555 -11.9149,3.68196 -23.8653,5.56979 -11.9503,1.88783 -23.9198,3.87504 -26.5988,4.41602 -2.85216,0.57593 -7.11334,5.21029 -10.28092,11.18123 l -5.40982,10.19763 9.70137,24.35651 c 5.33577,13.39608 9.70137,25.52914 9.70137,26.96234 0,2.9481 -18.19587,15.03499 -36.76175,24.41969 l -12.42218,6.2791 -5.74465,-5.3826 c -3.15955,-2.9604 -11.11945,-12.4236 -17.68867,-21.02941 l -11.94402,-15.64686 h -14.11872 c -13.95152,0 -14.20277,0.1166 -21.2164,9.85173 -9.09947,12.63024 -26.07617,31.88294 -28.07652,31.84064 -0.84784,-0.019 -9.31538,-4.2698 -18.81676,-9.4486 z m 83.33974,-83.20622 c 10.87933,-3.02715 24.60212,-14.68857 30.20197,-25.66518 3.14349,-6.16174 4.56883,-13.60331 4.56883,-23.85336 0,-12.95619 -0.98182,-16.36287 -7.53367,-26.14009 -9.0901,-13.56501 -22.71941,-21.61934 -39.3931,-23.27963 -10.34834,-1.03044 -14.09808,-0.20464 -24.8933,5.4822 -18.35344,9.66848 -26.30125,21.87264 -27.44677,42.14559 -1.06433,18.83595 3.83111,30.55013 17.48819,41.84706 13.3305,11.02679 29.61045,14.3042 47.00785,9.46341 z"
     style="fill:#1789a9;stroke-width:2.31805" />
</svg>
